<svg id="Layer_1" data-name="Layer 1" xmlns="http://www.w3.org/2000/svg" viewBox="0 0 71.27 183.63"><defs><style>.cls-1{fill:#fff;}</style></defs><title>semo_logo</title><path class="cls-1" d="M122.42,129.4L111.59,117l-1-.5L99,118,83.62,105.67l-6-4.54-6-4.79V82.49l14.87-32,7.06-9.58,7.31-10.33,6-8.82,3-4,5.29-9.07,3-.5,9.32,6.3-3,6.8-10.08,6.3-1.26,5.8L96,54.3l-6.8,24.91-6.3,10.33,10.08,11.34,5,4,4.79,3,25.45,11.38,6,4.79L133.76,137l-10.08,13.61-9.32,11.34-6.3,9.07-23.39,4.71L81.4,182l-3.28,6-5,3.78L63,185l1-4,6.55-5.8,7.56-9.07,7.31-9.58,16.83,6.88H102l4.28-5.8,13.36-21.17Z" transform="translate(-63 -8.18)"/></svg>